<?xml version="1.0" encoding="UTF-8"?>
<svg version="1.1" xmlns="http://www.w3.org/2000/svg" width="341" height="131">
<path d="M0 0 C6.65313889 0.17393827 10.8081016 3.05729919 16.1875 6.75 C17.95935531 7.93531466 19.73149934 9.12019781 21.50390625 10.3046875 C22.86153076 11.22072754 22.86153076 11.22072754 24.24658203 12.15527344 C28.66941303 15.11846825 33.14987707 17.99166507 37.625 20.875 C39.97805302 22.39118314 42.32070256 23.90845639 44.62695312 25.49511719 C46.99451438 27.08238444 46.99451438 27.08238444 49.76367188 28.20019531 C53.03092954 29.83149869 54.80033203 31.05682802 57 34 C58.66433477 39.8653453 58.43668677 46.04465068 58.30371094 52.08789062 C58.25007041 54.99618236 58.30320375 57.88905959 58.3671875 60.796875 C58.42329368 74.05448673 58.42329368 74.05448673 55.08764648 78.61401367 C52.48149614 80.4657589 49.92226512 81.71077985 47 83 C45.08804736 84.1978935 43.19354315 85.42403495 41.31640625 86.67578125 C39.39992855 87.89037672 37.48195114 89.102609 35.5625 90.3125 C33.626158 91.5375327 31.68995374 92.76278315 29.75390625 93.98828125 C28.91158447 94.51977783 28.0692627 95.05127441 27.20141602 95.59887695 C25.45379774 96.71117387 23.72364476 97.85090349 22 99 C20.35 98.67 18.7 98.34 17 98 C17 84.14 17 70.28 17 56 C15.35 55.34 13.7 54.68 12 54 C10.3170608 53.02763513 8.64556566 52.03435556 7 51 C6.98969254 51.98749741 6.97938507 52.97499481 6.96876526 53.99241638 C6.87120126 63.27805543 6.76848377 72.5636249 6.66066074 81.84915066 C6.60538912 86.62344948 6.55196248 91.39775438 6.50268555 96.17211914 C6.45510435 100.77571693 6.40276407 105.37923781 6.34705925 109.98274422 C6.3266073 111.74307413 6.30789902 113.50342515 6.29092598 115.26379204 C6.26694456 117.72077988 6.23688191 120.17762099 6.20532227 122.63452148 C6.1995668 123.36963455 6.19381134 124.10474762 6.18788147 124.86213684 C6.11405216 129.88594784 6.11405216 129.88594784 5 131 C0.02879956 131.77044435 -3.1576116 129.38750992 -7.125 126.75 C-8.53502185 125.83963555 -9.94518462 124.92948933 -11.35546875 124.01953125 C-12.10103027 123.53307129 -12.8465918 123.04661133 -13.61474609 122.54541016 C-17.85905089 119.7955177 -22.15336204 117.12472696 -26.4375 114.4375 C-28.06225681 113.41704861 -29.68604037 112.39504506 -31.30859375 111.37109375 C-31.99751709 110.93724365 -32.68644043 110.50339355 -33.39624023 110.05639648 C-35 109 -35 109 -36 108 C-36.09516211 105.2611158 -36.12554594 102.54752059 -36.11352539 99.80834961 C-36.11367142 98.94988937 -36.11381744 98.09142914 -36.1139679 97.20695496 C-36.11326847 94.35539262 -36.1054747 91.50389475 -36.09765625 88.65234375 C-36.09579218 86.68079158 -36.09436822 84.70923895 -36.09336853 82.73768616 C-36.08954251 77.53773733 -36.07971152 72.33781625 -36.06866455 67.13787842 C-36.05845222 61.83606339 -36.05387129 56.5342439 -36.04882812 51.23242188 C-36.03808933 40.82160237 -36.02101191 30.41080349 -36 20 C-32.23950195 18.91333008 -32.23950195 18.91333008 -30.08398438 19.69335938 C-29.42720703 20.07298828 -28.77042969 20.45261719 -28.09375 20.84375 C-26.97613281 21.47796875 -26.97613281 21.47796875 -25.8359375 22.125 C-25.06507812 22.57875 -24.29421875 23.0325 -23.5 23.5 C-22.76007812 23.9228125 -22.02015625 24.345625 -21.2578125 24.78125 C-18.83002037 26.17329463 -16.41458625 27.58517517 -14 29 C-11.80217539 30.2814079 -9.6042572 31.56265532 -7.40625 32.84375 C-5.60407567 33.89567746 -3.8019596 34.94770475 -2 36 C-1.96241577 34.41747437 -1.96241577 34.41747437 -1.92407227 32.80297852 C-1.83015891 28.90229372 -1.72989966 25.00179375 -1.62768555 21.10131836 C-1.58427561 19.41060701 -1.54260511 17.71985009 -1.50268555 16.02905273 C-1.44512906 13.60386394 -1.38139351 11.17890585 -1.31640625 8.75390625 C-1.29969376 7.99348526 -1.28298126 7.23306427 -1.26576233 6.44960022 C-1.11387171 1.11387171 -1.11387171 1.11387171 0 0 Z M6 10 C4.29842124 26.06177132 4.29842124 26.06177132 6 42 C8.39215956 44.77530095 10.99069789 45.67598122 14.4375 46.75 C18.08432747 47.9081691 20.59346505 48.95519226 23 52 C25.71527623 63.62138227 24.66954675 76.16491163 24 88 C24.82552368 87.51188843 24.82552368 87.51188843 25.66772461 87.01391602 C29.51177397 84.80079928 33.12055568 82.86588891 37.37890625 81.58984375 C42.45591941 79.76889464 46.21524967 77.77035095 49 73 C51.84894719 61.83936697 53.28682957 45.10393734 47.72998047 34.59912109 C44.39686828 31.0428893 40.15693145 29.67384053 35.64208984 28.10302734 C30.2494541 25.85169411 25.56031686 22.27836398 20.75 19 C18.79009562 17.70282096 16.82676582 16.41079625 14.859375 15.125 C14.01858398 14.57070312 13.17779297 14.01640625 12.31152344 13.4453125 C10.25158658 12.15730804 8.19318705 11.04040652 6 10 Z M-29 30 C-29.48916888 39.42203394 -29.86087687 48.8396378 -30.08805561 58.27164745 C-30.19717849 62.6533843 -30.34466988 67.02637788 -30.58422852 71.40307617 C-32.37941213 89.88703348 -32.37941213 89.88703348 -26.98382568 106.84332275 C-22.18832792 111.20710307 -16.81244545 113.88081568 -10.70158386 115.95259094 C-7.22626365 117.29997901 -4.20595383 119.0995594 -1 121 C-0.79125536 111.32516694 -0.63145183 101.65111134 -0.53369045 91.97451591 C-0.48676288 87.48089821 -0.42314544 82.98882336 -0.32104492 78.49609375 C-0.22308306 74.15821371 -0.16940901 69.8218149 -0.14610481 65.48291397 C-0.12950408 63.82973022 -0.09708261 62.1766256 -0.04842949 60.52407455 C0.53526923 51.56158662 0.53526923 51.56158662 -2.90434265 43.7147522 C-5.22174923 42.14534081 -7.41986738 41.06888231 -10 40 C-11.52192392 39.09676352 -13.03304239 38.17479876 -14.52734375 37.2265625 C-15.99579093 36.35666011 -17.46583885 35.48945402 -18.9375 34.625 C-19.69095703 34.17511719 -20.44441406 33.72523437 -21.22070312 33.26171875 C-21.94064453 32.83761719 -22.66058594 32.41351563 -23.40234375 31.9765625 C-24.04679443 31.59580566 -24.69124512 31.21504883 -25.35522461 30.82275391 C-26.99160274 29.8508757 -26.99160274 29.8508757 -29 30 Z " fill="#FFCC00" transform="translate(36,0)"/>
<path d="M0 0 C32.62162162 0 32.62162162 0 40.375 5.3125 C45.32955307 10.38501862 46.62687123 15.19171616 47.05078125 22.125 C46.95001797 27.82975166 45.95918113 32.66969645 42.2265625 37.109375 C35.71951067 43.1427334 29.74623578 44.31346965 21.125 44.125 C17.103125 44.063125 17.103125 44.063125 13 44 C13 50.27 13 56.54 13 63 C8.71 63 4.42 63 0 63 C0 42.21 0 21.42 0 0 Z M13 11 C13 18.26 13 25.52 13 33 C16.0628125 33.0928125 16.0628125 33.0928125 19.1875 33.1875 C20.91033203 33.23970703 20.91033203 33.23970703 22.66796875 33.29296875 C26.33289234 32.97073045 28.09664715 32.21232393 31 30 C33.8226812 25.7659782 33.785025 21.97182497 33 17 C30.13250924 13.09702646 28.72271943 12.18067986 24 11 C20.37 11 16.74 11 13 11 Z " fill="#FFFFFF" transform="translate(139,31)"/>
<path d="M0 0 C3.96 0 7.92 0 12 0 C15.21516856 6.91937571 17.38914845 14.1744176 19.6875 21.4375 C20.10710421 22.75465853 20.5270234 24.07171676 20.94726562 25.38867188 C21.96793982 28.5914771 22.98541538 31.79526158 24 35 C24.16081055 34.43716309 24.32162109 33.87432617 24.48730469 33.29443359 C27.65820312 22.19628906 30.82910156 11.09814453 34 0 C37.96 0 41.92 0 46 0 C44.7666812 7.20026707 43.27639534 14.19879068 41.3203125 21.234375 C41.06627655 22.15663879 40.8122406 23.07890259 40.55050659 24.02911377 C40.0168743 25.95908695 39.48064473 27.88834375 38.94189453 29.81689453 C38.12387726 32.75403127 37.3214226 35.69514419 36.51953125 38.63671875 C35.99573466 40.52369951 35.47102647 42.41042752 34.9453125 44.296875 C34.59196335 45.60177887 34.59196335 45.60177887 34.23147583 46.93304443 C32.43575942 53.27679894 30.49555166 59.55208561 24.80859375 63.421875 C20.62045726 65.51985739 16.65807016 65.45477262 12.0625 65.25 C11.28326172 65.23195313 10.50402344 65.21390625 9.70117188 65.1953125 C7.80023869 65.14866383 5.89994831 65.07693829 4 65 C3.97311849 63.35425434 3.95365877 61.70838587 3.9375 60.0625 C3.92589844 59.14597656 3.91429687 58.22945312 3.90234375 57.28515625 C4 55 4 55 5 54 C8.2985752 53.79554286 11.59530267 53.6804171 14.8984375 53.57421875 C18.0582356 53.29259432 18.0582356 53.29259432 19.8515625 51.14453125 C21.12059868 48.92002171 21.12059868 48.92002171 22 46 C19.69 46 17.38 46 15 46 C11.58088603 37.90999921 8.76653227 29.63993596 5.99853516 21.3112793 C5.24281732 19.0409215 4.47905299 16.77337109 3.71484375 14.50585938 C3.23128542 13.05745363 2.74819506 11.60889155 2.265625 10.16015625 C1.92352997 9.14768578 1.92352997 9.14768578 1.57452393 8.11476135 C0.63760625 5.27585893 0 3.01259021 0 0 Z " fill="#FFFFFF" transform="translate(189,47)"/>
<path d="M0 0 C5.90505426 4.82045246 7.1660043 10.11329351 8.0625 17.5 C8.13939501 19.84141176 8.17056803 22.1846928 8.16015625 24.52734375 C8.15693359 25.81318359 8.15371094 27.09902344 8.15039062 28.42382812 C8.14203802 29.76171945 8.13357311 31.09961007 8.125 32.4375 C8.11997659 33.80273274 8.11541517 35.16796726 8.11132812 36.53320312 C8.0995886 39.85548788 8.08165455 43.17774972 8.0625 46.5 C3.7725 46.5 -0.5175 46.5 -4.9375 46.5 C-4.97488281 44.39238281 -5.01226562 42.28476563 -5.05078125 40.11328125 C-5.09705705 38.06117665 -5.14826831 36.0092501 -5.19995117 33.95727539 C-5.23310557 32.53648798 -5.26116692 31.11557187 -5.28393555 29.69458008 C-5.31765847 27.6460918 -5.36997745 25.5987728 -5.42578125 23.55078125 C-5.45196533 22.32012939 -5.47814941 21.08947754 -5.50512695 19.8215332 C-5.96886726 16.25903356 -6.74836063 14.32575528 -8.9375 11.5 C-12.73346504 10.15032354 -14.46941329 10.3233635 -18.25 11.75 C-21.2101375 13.28051622 -21.2101375 13.28051622 -21.9375 16.5 C-22.08895099 18.7825699 -22.18636979 21.06887706 -22.25390625 23.35546875 C-22.27468735 24.01710526 -22.29546844 24.67874176 -22.31687927 25.36042786 C-22.38214727 27.46934852 -22.44115344 29.57839135 -22.5 31.6875 C-22.54320689 33.11915315 -22.58682188 34.55079404 -22.63085938 35.98242188 C-22.73857185 39.48815796 -22.83781308 42.99398975 -22.9375 46.5 C-27.2275 46.5 -31.5175 46.5 -35.9375 46.5 C-35.9375 30.99 -35.9375 15.48 -35.9375 -0.5 C-32.6375 -0.5 -29.3375 -0.5 -25.9375 -0.5 C-25.2775 1.15 -24.6175 2.8 -23.9375 4.5 C-23.009375 3.695625 -22.08125 2.89125 -21.125 2.0625 C-15.55140355 -2.76795025 -6.60801648 -3.25383892 0 0 Z " fill="#FFFFFF" transform="translate(332.9375,47.5)"/>
<path d="M0 0 C5.51191759 4.49952456 7.10186694 9.59891801 8.0625 16.5 C8.14121404 18.88173448 8.17034007 21.26542442 8.16015625 23.6484375 C8.1587413 24.30582916 8.15732635 24.96322083 8.15586853 25.64053345 C8.15031762 27.71873731 8.13777465 29.79682927 8.125 31.875 C8.11997864 33.29296718 8.11541685 34.71093607 8.11132812 36.12890625 C8.10121962 39.58601421 8.08163533 43.04288338 8.0625 46.5 C3.7725 46.5 -0.5175 46.5 -4.9375 46.5 C-4.97488281 44.39238281 -5.01226562 42.28476563 -5.05078125 40.11328125 C-5.09705705 38.06117665 -5.14826831 36.0092501 -5.19995117 33.95727539 C-5.23310557 32.53648798 -5.26116692 31.11557187 -5.28393555 29.69458008 C-5.31765847 27.6460918 -5.36997745 25.5987728 -5.42578125 23.55078125 C-5.45196533 22.32012939 -5.47814941 21.08947754 -5.50512695 19.8215332 C-5.96886726 16.25903356 -6.74836063 14.32575528 -8.9375 11.5 C-12.73346504 10.15032354 -14.46941329 10.3233635 -18.25 11.75 C-21.2101375 13.28051622 -21.2101375 13.28051622 -21.9375 16.5 C-22.08895099 18.7825699 -22.18636979 21.06887706 -22.25390625 23.35546875 C-22.27468735 24.01710526 -22.29546844 24.67874176 -22.31687927 25.36042786 C-22.38214727 27.46934852 -22.44115344 29.57839135 -22.5 31.6875 C-22.54320689 33.11915315 -22.58682188 34.55079404 -22.63085938 35.98242188 C-22.73857185 39.48815796 -22.83781308 42.99398975 -22.9375 46.5 C-27.2275 46.5 -31.5175 46.5 -35.9375 46.5 C-35.96214347 39.96720661 -35.98033291 33.43444002 -35.99243164 26.90161133 C-35.99747317 24.67732268 -36.00430623 22.45303737 -36.01293945 20.22875977 C-36.02501298 17.03921691 -36.03072996 13.84971771 -36.03515625 10.66015625 C-36.04031754 9.65912369 -36.04547882 8.65809113 -36.05079651 7.62672424 C-36.05087204 6.70584518 -36.05094757 5.78496613 -36.05102539 4.83618164 C-36.053246 4.02121719 -36.05546661 3.20625275 -36.05775452 2.36659241 C-35.9375 0.5 -35.9375 0.5 -34.9375 -0.5 C-33.41821962 -0.57179964 -31.89582518 -0.58392007 -30.375 -0.5625 C-29.54871094 -0.55347656 -28.72242188 -0.54445312 -27.87109375 -0.53515625 C-27.23300781 -0.52355469 -26.59492188 -0.51195312 -25.9375 -0.5 C-25.2775 1.15 -24.6175 2.8 -23.9375 4.5 C-23.009375 3.695625 -22.08125 2.89125 -21.125 2.0625 C-15.55140355 -2.76795025 -6.60801648 -3.25383892 0 0 Z " fill="#FFFFFF" transform="translate(277.9375,47.5)"/>
</svg>

